<svg data-name="Layer 1" xmlns="http://www.w3.org/2000/svg" viewBox="0 0 627 197.5">
    <defs>
        <style>
            .afdsjlasdjflasdflkasjdf {
                fill: #e31274;
            }

            .asdfjasdf {
                fill: none;
                stroke: #e31274;
                stroke-miterlimit: 10;
                stroke-width: 6px;
            }
        </style>
    </defs>
    <title>Pink_Nation_Member</title>
    <path class="afdsjlasdjflasdflkasjdf" d="M70 74h10v11H70zm-6-6v23h18.34L86 86.92V71.76L82.34 68zm-10-5h30.9l7.1 7.16v18.35L84.9 96H64v15h5v5H54v-5h4V68h-4zm-6-6v17h5v32h-5v16h27v-16h-5v-5h17.3L98 90.57V68.11L87.3 57zm60 6h16v5h-5v43h5v5h-16v-5h5V68h-5zm-5-6v17h4v32h-4v16h26v-16h-4V74h4V57zm70 6h15v5h-5v48h-6.48L151 70.14V111h5v5h-15v-5h5V68h-5v-5h12.91L178 106.85V68h-5zm-5-6v16h5v14.23L157.14 57H136v17h5v32h-5v16h25v-16h-5V90l17.34 32H189V74h4V57zm65 6h16v5h-3.91L231.9 82.88 245.7 111h4.3v5h-16v-5h5.15l-11.37-23.3L215 102.34V111h4v5h-15v-5h5V68h-5v-5h15v5h-4v27.38L238.87 68H233zm-5-6v16h.9l-8.9 9.54V73h4V57h-26v17h5v32h-5v16h26v-16h-4v-2.59l6.14-6.85 4.76 9.44H228v16h27v-16h-6.09L238.2 84.24 247.3 74h6.7V57zM555 57v14h5v19.33L541.55 57H523v14h4v37h-4v14h24v-14h-4.73l.02-19.91L561.5 122h13.45l.01-51H580V57h-25zM304 71h5v19.33L290.32 57H271v14h5v37h-5v14h25v-14h-4.95l.02-19.91L310.28 122h13.44l.02-51H329V57h-25v14zM368.45 57h-17.28l-16.61 50.6-4.56.22V122h24.46v-13.65l-4.5-.08 2-6.61h14.45l2.05 6.59h-4.5V122h25v-14h-4.76zM356 89.22l3.51-12.9 3.37 12.91zM383 81h14V71h5v37h-5v14h25v-14h-5V71h5v10h14V57h-53v24zM442 71h5v37h-5v14h25v-14h-5V71h5V57h-25v14z"
    />
    <path class="afdsjlasdjflasdflkasjdf" d="M462.1 80.03h.28v.14h-.28zM483.78 57l-10.33 10.95v43.14L483.77 122h22.08L516 111.06v-42.9L505.85 57zM501 107.69l-12.45.22V72H501zM215.1 170v27.5h-7.84v-49h9.8l6.37 22.5 6.37-22.47h10.08v49h-9.1v-28.17l-5.11 19h-5.6zM251.22 197.5v-49h23.24v7.84h-14.14v12.39h11.62v7.84h-11.62v13.09h14.14v7.84zM292.24 170v27.5h-7.84v-49h9.8l6.37 22.5 6.37-22.47H317v49h-9.1v-28.17l-5.11 19h-5.6zM352.86 192.53l-5 5h-19.5v-49h18.83l4.9 4.9v16.45l-2.45 2.45 3.22 3.15zm-15.4-23.8h5.6v-12.39h-5.6zm0 20.93h6.3v-13.09h-6.3zM363.78 197.5v-49H387v7.84h-14.12v12.39h11.62v7.84h-11.62v13.09H387v7.84zM406.06 197.5H397v-49h19.53l5 4.9V175l-3.29 3.22 4.27 19.25h-9l-3.71-17.57h-3.71zm0-25.41h6.3v-15.75h-6.3z"
    />
    <path class="asdfjasdf" d="M442 174h182V3H3v171h185" />
</svg>